<svg version="1.1" id="Layer_1" xmlns="http://www.w3.org/2000/svg" xmlns:xlink="http://www.w3.org/1999/xlink" x="0px" y="0px" width="640" viewBox="0 0 640 640" enable-background="new 0 0 640 640" xml:space="preserve" height="640">
<path fill="#1E1A1A" opacity="1.000000" stroke="none" d="
M347.250000,507.750000 
	C273.131958,433.631836 199.279007,359.748566 125.342224,285.949280 
	C122.297096,282.909790 120.890366,279.899658 120.904495,275.502045 
	C121.058182,227.685104 120.998276,179.867477 121.002777,132.050049 
	C121.003593,123.335419 123.281502,121.004768 131.823288,121.003662 
	C179.973953,120.997414 228.124725,121.045158 276.275055,120.916344 
	C280.140564,120.905998 282.774323,122.186211 285.424194,124.839714 
	C362.655884,202.177246 439.938110,279.464355 517.288086,356.683563 
	C519.992615,359.383545 521.078735,362.099731 521.070312,365.891449 
	C520.963501,414.041870 521.003845,462.192596 520.995972,510.343262 
	C520.994629,518.623230 518.607849,520.995056 510.283234,520.996338 
	C462.799011,521.003723 415.314453,520.916321 367.831085,521.117615 
	C362.548889,521.140015 358.561279,519.954224 355.222473,515.825806 
	C352.929138,512.990112 350.093323,510.593109 347.250000,507.750000 
M330.006104,215.477600 
	C327.991547,214.986359 325.979431,214.080490 323.962006,214.068542 
	C305.477783,213.958984 286.992615,214.004623 268.507721,214.004990 
	C266.901215,214.005020 265.294739,214.004990 263.475372,214.004990 
	C263.475372,194.595444 263.369781,175.781921 263.551361,156.971161 
	C263.595459,152.404724 262.078156,150.807755 257.468994,150.918655 
	C246.484329,151.182953 235.484390,151.189056 224.500183,150.915756 
	C219.881653,150.800827 218.365387,152.387527 218.430252,156.954102 
	C218.638367,171.605835 218.507416,186.262405 218.507309,200.917099 
	C218.507278,205.174866 218.507309,209.432632 218.507309,214.003891 
	C216.254654,214.003891 214.613129,214.003891 212.971619,214.003891 
	C194.320190,214.003845 175.668320,214.072525 157.017670,213.951187 
	C152.812698,213.923828 150.910233,215.405243 150.960663,219.750763 
	C151.090118,230.906815 150.860947,242.068939 151.139114,253.219559 
	C151.187943,255.177185 153.002716,257.090759 154.264984,259.770874 
	C156.113785,260.181793 157.960953,260.941345 159.811615,260.949951 
	C179.264313,261.040375 198.717545,261.010834 218.451675,261.913818 
	C218.470230,282.680389 218.445023,303.447235 218.571564,324.213135 
	C218.584961,326.411804 219.488541,328.605072 220.213058,331.584351 
	C221.862259,332.057709 223.507278,332.923523 225.161331,332.941132 
	C236.484100,333.061737 247.808838,333.029175 259.132782,332.994232 
	C265.086151,332.975861 265.984924,332.045868 265.991791,325.918854 
	C266.013580,306.434814 265.990326,286.950806 266.006012,267.466766 
	C266.011047,261.213501 266.212067,261.015869 272.498413,261.010376 
	C290.483673,260.994659 308.469086,260.964996 326.454071,261.034363 
	C330.313416,261.049225 333.023041,260.150604 333.008301,255.595581 
	C332.969452,243.605576 333.065826,231.614304 332.887390,219.626816 
	C332.869019,218.392349 331.362793,217.179993 330.006104,215.477600 
M376.372589,314.332611 
	C358.869598,319.585083 344.107056,329.054779 332.209229,342.963348 
	C323.637604,352.983582 318.084442,364.611572 313.310822,377.175507 
	C313.185425,378.443726 313.060028,379.711975 313.009644,381.768341 
	C312.783691,382.510559 312.557709,383.252808 311.771210,384.202789 
	C310.046143,385.473389 309.040070,386.741608 311.869049,388.775757 
	C311.658752,389.515167 311.448425,390.254578 310.606812,391.286224 
	C310.071381,392.932190 309.127716,394.562134 309.062317,396.226562 
	C308.187012,418.499298 312.981537,439.110291 326.736572,457.214630 
	C337.577545,471.483521 351.069458,482.671478 367.706451,488.827942 
	C393.759247,498.468689 419.720764,497.950165 444.900024,484.622559 
	C467.845581,472.477264 483.425507,454.133087 491.128235,429.581146 
	C497.871033,408.088837 497.082489,386.247528 488.036438,365.616394 
	C478.843140,344.649445 463.825989,328.748444 442.916199,318.220215 
	C427.433990,310.424866 411.280182,308.729889 394.529053,309.110809 
	C393.334198,309.137970 392.169678,310.498199 390.321259,311.642517 
	C389.546600,311.689209 388.771912,311.735870 387.825928,311.209198 
	C386.548218,311.583099 385.270477,311.956970 383.328003,312.761322 
	C382.544464,312.818726 381.760925,312.876099 380.481476,312.503296 
	C379.321442,312.981445 378.161377,313.459595 376.372589,314.332611 
z"></path>
<path fill="#DDDDDD" opacity="1.000000" stroke="none" d="
M380.977386,312.933502 
	C381.760925,312.876099 382.544464,312.818726 383.997559,312.576294 
	C385.777191,312.188385 386.887207,311.985474 387.997253,311.782532 
	C388.771912,311.735870 389.546600,311.689209 391.065613,311.508209 
	C417.545471,309.441010 440.496948,316.005493 459.977295,333.466919 
	C484.827698,355.741882 494.835510,383.534119 489.636078,416.282043 
	C483.943939,452.133057 455.518768,481.307465 420.606232,488.920135 
	C386.561493,496.343597 347.793732,483.398956 326.870636,452.093750 
	C314.425598,433.473419 309.626953,413.105652 311.238098,390.993988 
	C311.448425,390.254578 311.658752,389.515167 311.929047,388.062744 
	C312.103271,386.231506 312.217499,385.113251 312.331726,383.995026 
	C312.557709,383.252808 312.783691,382.510559 313.141174,381.070648 
	C313.494873,379.249084 313.717072,378.125214 313.939270,377.001343 
	C318.084442,364.611572 323.637604,352.983582 332.209229,342.963348 
	C344.107056,329.054779 358.869598,319.585083 377.034302,314.165680 
	C378.789795,313.643646 379.883575,313.288574 380.977386,312.933502 
z"></path>
<path fill="#DFDFDF" opacity="1.000000" stroke="none" d="
M219.979126,330.800842 
	C219.488541,328.605072 218.584961,326.411804 218.571564,324.213135 
	C218.445023,303.447235 218.470230,282.680389 218.394348,261.012878 
	C216.862366,259.741577 215.388718,259.053619 213.912903,259.048950 
	C193.942749,258.985413 173.972305,259.016754 154.001923,259.024689 
	C153.002716,257.090759 151.187943,255.177185 151.139114,253.219559 
	C150.860947,242.068939 151.090118,230.906815 150.960663,219.750763 
	C150.910233,215.405243 152.812698,213.923828 157.017670,213.951187 
	C175.668320,214.072525 194.320190,214.003845 212.971619,214.003891 
	C214.613129,214.003891 216.254654,214.003891 218.507309,214.003891 
	C218.507309,209.432632 218.507278,205.174866 218.507309,200.917099 
	C218.507416,186.262405 218.638367,171.605835 218.430252,156.954102 
	C218.365387,152.387527 219.881653,150.800827 224.500183,150.915756 
	C235.484390,151.189056 246.484329,151.182953 257.468994,150.918655 
	C262.078156,150.807755 263.595459,152.404724 263.551361,156.971161 
	C263.369781,175.781921 263.475372,194.595444 263.475372,214.004990 
	C265.294739,214.004990 266.901215,214.005020 268.507721,214.004990 
	C286.992615,214.004623 305.477783,213.958984 323.962006,214.068542 
	C325.979431,214.080490 327.991547,214.986359 330.418152,216.173340 
	C330.886414,228.512054 330.960968,240.154984 330.991486,251.798035 
	C331.007996,258.084747 330.103424,258.986511 323.779633,258.992615 
	C305.477051,259.010223 287.174500,258.998566 268.871918,258.998444 
	C267.141876,258.998413 265.411804,258.998444 263.521362,258.998444 
	C263.521362,261.589691 263.521362,263.416229 263.521362,265.242767 
	C263.521240,285.209229 263.504425,305.175690 263.537659,325.142090 
	C263.543091,328.406372 263.363770,331.109497 258.901886,331.043243 
	C245.929291,330.850555 232.953598,330.866638 219.979126,330.800842 
z"></path>
<path fill="#1B1818" opacity="1.000000" stroke="none" d="
M310.922455,391.140106 
	C309.626953,413.105652 314.425598,433.473419 326.870636,452.093750 
	C347.793732,483.398956 386.561493,496.343597 420.606232,488.920135 
	C455.518768,481.307465 483.943939,452.133057 489.636078,416.282043 
	C494.835510,383.534119 484.827698,355.741882 459.977295,333.466919 
	C440.496948,316.005493 417.545471,309.441010 391.400513,311.306244 
	C392.169678,310.498199 393.334198,309.137970 394.529053,309.110809 
	C411.280182,308.729889 427.433990,310.424866 442.916199,318.220215 
	C463.825989,328.748444 478.843140,344.649445 488.036438,365.616394 
	C497.082489,386.247528 497.871033,408.088837 491.128235,429.581146 
	C483.425507,454.133087 467.845581,472.477264 444.900024,484.622559 
	C419.720764,497.950165 393.759247,498.468689 367.706451,488.827942 
	C351.069458,482.671478 337.577545,471.483521 326.736572,457.214630 
	C312.981537,439.110291 308.187012,418.499298 309.062317,396.226562 
	C309.127716,394.562134 310.071381,392.932190 310.922455,391.140106 
z"></path>
<path fill="#141111" opacity="1.000000" stroke="none" d="
M220.096085,331.192596 
	C232.953598,330.866638 245.929291,330.850555 258.901886,331.043243 
	C263.363770,331.109497 263.543091,328.406372 263.537659,325.142090 
	C263.504425,305.175690 263.521240,285.209229 263.521362,265.242767 
	C263.521362,263.416229 263.521362,261.589691 263.521362,258.998444 
	C265.411804,258.998444 267.141876,258.998413 268.871918,258.998444 
	C287.174500,258.998566 305.477051,259.010223 323.779633,258.992615 
	C330.103424,258.986511 331.007996,258.084747 330.991486,251.798035 
	C330.960968,240.154984 330.886414,228.512054 330.688599,216.413208 
	C331.362793,217.179993 332.869019,218.392349 332.887390,219.626816 
	C333.065826,231.614304 332.969452,243.605576 333.008301,255.595581 
	C333.023041,260.150604 330.313416,261.049225 326.454071,261.034363 
	C308.469086,260.964996 290.483673,260.994659 272.498413,261.010376 
	C266.212067,261.015869 266.011047,261.213501 266.006012,267.466766 
	C265.990326,286.950806 266.013580,306.434814 265.991791,325.918854 
	C265.984924,332.045868 265.086151,332.975861 259.132782,332.994232 
	C247.808838,333.029175 236.484100,333.061737 225.161331,332.941132 
	C223.507278,332.923523 221.862259,332.057709 220.096085,331.192596 
z"></path>
<path fill="#131010" opacity="1.000000" stroke="none" d="
M154.133453,259.397766 
	C173.972305,259.016754 193.942749,258.985413 213.912903,259.048950 
	C215.388718,259.053619 216.862366,259.741577 218.253815,260.563171 
	C198.717545,261.010834 179.264313,261.040375 159.811615,260.949951 
	C157.960953,260.941345 156.113785,260.181793 154.133453,259.397766 
z"></path>
<path fill="#1B1818" opacity="1.000000" stroke="none" d="
M387.911591,311.495880 
	C386.887207,311.985474 385.777191,312.188385 384.329956,312.361084 
	C385.270477,311.956970 386.548218,311.583099 387.911591,311.495880 
z"></path>
<path fill="#1B1818" opacity="1.000000" stroke="none" d="
M312.051483,384.098907 
	C312.217499,385.113251 312.103271,386.231506 311.886444,387.673523 
	C309.040070,386.741608 310.046143,385.473389 312.051483,384.098907 
z"></path>
<path fill="#1B1818" opacity="1.000000" stroke="none" d="
M380.729431,312.718384 
	C379.883575,313.288574 378.789795,313.643646 377.348663,313.968262 
	C378.161377,313.459595 379.321442,312.981445 380.729431,312.718384 
z"></path>
<path fill="#1B1818" opacity="1.000000" stroke="none" d="
M313.625061,377.088440 
	C313.717072,378.125214 313.494873,379.249084 313.103638,380.676575 
	C313.060028,379.711975 313.185425,378.443726 313.625061,377.088440 
z"></path>
</svg>